<svg xmlns="http://www.w3.org/2000/svg" xmlns:xlink="http://www.w3.org/1999/xlink" width="500" zoomAndPan="magnify" viewBox="0 0 375 374.999991" height="500" preserveAspectRatio="xMidYMid meet" version="1.0"><defs><g/><clipPath id="9575bf512c"><path d="M 183.070312 125 L 200 125 L 200 128 L 183.070312 128 Z M 183.070312 125 " clip-rule="nonzero"/></clipPath><clipPath id="8404c01f7b"><path d="M 200 72.707031 L 268 72.707031 L 268 143 L 200 143 Z M 200 72.707031 " clip-rule="nonzero"/></clipPath><clipPath id="a0f89b4c48"><path d="M 268 115 L 324.84375 115 L 324.84375 302.570312 L 268 302.570312 Z M 268 115 " clip-rule="nonzero"/></clipPath></defs><g clip-path="url(#9575bf512c)"><path fill="#00bf63" d="M 199.230469 125.53125 L 183.070312 127.011719 L 199.230469 126.898438 Z M 199.230469 125.53125 " fill-opacity="1" fill-rule="nonzero"/></g><path fill="#00bf63" d="M 207.503906 124.847656 L 207.503906 126.917969 L 260.144531 126.59375 L 260.105469 120.03125 Z M 207.503906 124.847656 " fill-opacity="1" fill-rule="nonzero"/><g clip-path="url(#8404c01f7b)"><path fill="#00bf63" d="M 266.234375 136.628906 C 266.214844 128.777344 266.121094 102.351562 266.234375 99.449219 C 266.308594 97.550781 265.191406 88.996094 258.417969 81.957031 C 252.574219 75.886719 244.378906 72.816406 234.0625 72.816406 C 203.121094 72.816406 201.640625 101.175781 201.640625 101.515625 L 201.640625 136.609375 C 200.710938 137.21875 200.085938 138.28125 200.085938 139.476562 C 200.085938 141.371094 201.621094 142.910156 203.519531 142.910156 C 205.414062 142.910156 206.953125 141.371094 206.953125 139.476562 C 206.953125 138.089844 206.136719 136.914062 204.941406 136.363281 L 204.941406 101.574219 C 204.980469 100.53125 206.269531 76.097656 234.078125 76.097656 C 243.46875 76.097656 250.867188 78.828125 256.066406 84.234375 C 261.546875 89.925781 263.027344 97.285156 262.953125 99.316406 C 262.839844 102.273438 262.914062 128.152344 262.933594 136.363281 C 261.757812 136.914062 260.921875 138.089844 260.921875 139.476562 C 260.921875 141.371094 262.457031 142.910156 264.355469 142.910156 C 266.253906 142.910156 267.789062 141.371094 267.789062 139.476562 C 267.789062 138.28125 267.164062 137.238281 266.234375 136.628906 Z M 266.234375 136.628906 " fill-opacity="1" fill-rule="nonzero"/></g><g clip-path="url(#a0f89b4c48)"><path fill="#00bf63" d="M 310.871094 120.105469 L 308.652344 115.667969 L 307.742188 115.742188 L 289.015625 117.453125 L 268.945312 119.292969 L 269.003906 126.539062 L 294.839844 126.386719 C 339.667969 201.734375 289.890625 300.058594 288.808594 302.183594 C 341.28125 228.140625 326.332031 145.433594 310.871094 120.105469 Z M 310.871094 120.105469 " fill-opacity="1" fill-rule="nonzero"/></g><g fill="#591f27" fill-opacity="1"><g transform="translate(59.500164, 210.661975)"><g><path d="M 7.75 -26.796875 L 7.75 0 L 4.015625 0 L 4.015625 -38.671875 L 24.4375 -9.625 L 24.4375 -36.375 L 28.1875 -36.375 L 28.1875 2.25 Z M 7.75 -26.796875 "/></g></g></g><g fill="#591f27" fill-opacity="1"><g transform="translate(91.699734, 210.661975)"><g><path d="M 14.125 -17.171875 C 6.707031 -18.878906 3 -22.050781 3 -26.6875 C 3 -30.113281 4.191406 -32.679688 6.578125 -34.390625 C 8.960938 -36.066406 11.757812 -36.90625 14.96875 -36.90625 C 22.070312 -36.90625 26.28125 -34.265625 27.59375 -28.984375 L 23.53125 -28.984375 C 22.820312 -32.117188 19.96875 -33.6875 14.96875 -33.6875 C 11.476562 -33.6875 9.035156 -32.65625 7.640625 -30.59375 C 7.109375 -29.8125 6.84375 -28.832031 6.84375 -27.65625 C 6.84375 -25.40625 8.054688 -23.675781 10.484375 -22.46875 C 11.617188 -21.851562 14.039062 -21.066406 17.75 -20.109375 C 21.457031 -19.148438 24.148438 -18.082031 25.828125 -16.90625 C 28.148438 -15.257812 29.3125 -12.957031 29.3125 -10 C 29.3125 -6.332031 27.867188 -3.550781 24.984375 -1.65625 C 22.554688 -0.09375 19.554688 0.6875 15.984375 0.6875 C 7.929688 0.6875 3.265625 -2.375 1.984375 -8.5 L 6.421875 -8.5 C 7.097656 -4.65625 10.285156 -2.734375 15.984375 -2.734375 C 20.054688 -2.734375 22.894531 -3.851562 24.5 -6.09375 C 25.132812 -6.988281 25.453125 -8.203125 25.453125 -9.734375 C 25.453125 -11.234375 24.863281 -12.460938 23.6875 -13.421875 C 22.019531 -14.773438 18.832031 -16.023438 14.125 -17.171875 Z M 14.125 -17.171875 "/></g></g></g><g fill="#591f27" fill-opacity="1"><g transform="translate(122.401656, 210.661975)"><g><path d="M 7.75 -17.96875 L 16.203125 -17.96875 C 18.304688 -17.96875 20.035156 -18.679688 21.390625 -20.109375 C 22.785156 -21.566406 23.484375 -23.367188 23.484375 -25.515625 C 23.484375 -27.617188 22.820312 -29.363281 21.5 -30.75 C 20.175781 -32.101562 18.410156 -32.78125 16.203125 -32.78125 L 7.75 -32.78125 Z M 27.21875 -25.40625 C 27.21875 -22.226562 26.097656 -19.585938 23.859375 -17.484375 C 21.859375 -15.628906 19.453125 -14.613281 16.640625 -14.4375 L 27.8125 0 L 22.78125 0 L 12.140625 -14.390625 L 7.75 -14.390625 L 7.75 0 L 4.015625 0 L 4.015625 -36.375 L 15.671875 -36.375 C 18.910156 -36.375 21.640625 -35.359375 23.859375 -33.328125 C 26.097656 -31.179688 27.21875 -28.539062 27.21875 -25.40625 Z M 27.21875 -25.40625 "/></g></g></g><g fill="#591f27" fill-opacity="1"><g transform="translate(151.49894, 210.661975)"><g/></g></g><g fill="#591f27" fill-opacity="1"><g transform="translate(165.940615, 210.661975)"><g><path d="M 37.546875 0 L 31.875 -25.890625 L 20.96875 2.140625 L 10 -25.890625 L 4.390625 0 L 0.53125 0 L 9.03125 -38.78125 L 20.96875 -7.640625 L 32.890625 -38.78125 L 41.34375 0 Z M 37.546875 0 "/></g></g></g><g fill="#591f27" fill-opacity="1"><g transform="translate(207.821442, 210.661975)"><g><path d="M 22.734375 -11.765625 C 22.734375 -14.046875 21.945312 -16.039062 20.375 -17.75 C 18.769531 -19.46875 16.789062 -20.328125 14.4375 -20.328125 C 12.082031 -20.328125 10.125 -19.46875 8.5625 -17.75 C 6.957031 -16.039062 6.15625 -14.046875 6.15625 -11.765625 C 6.15625 -9.484375 6.957031 -7.488281 8.5625 -5.78125 C 10.125 -4.0625 12.082031 -3.203125 14.4375 -3.203125 C 16.789062 -3.203125 18.769531 -4.0625 20.375 -5.78125 C 21.945312 -7.488281 22.734375 -9.484375 22.734375 -11.765625 Z M 26.46875 0 L 22.734375 0 L 22.734375 -4.015625 C 22.515625 -3.722656 22.300781 -3.453125 22.09375 -3.203125 C 19.84375 -0.710938 17.097656 0.53125 13.859375 0.53125 C 10.609375 0.53125 7.878906 -0.710938 5.671875 -3.203125 C 3.492188 -5.628906 2.40625 -8.484375 2.40625 -11.765625 C 2.40625 -15.046875 3.492188 -17.898438 5.671875 -20.328125 C 7.878906 -22.816406 10.609375 -24.0625 13.859375 -24.0625 C 17.097656 -24.0625 19.84375 -22.816406 22.09375 -20.328125 C 22.300781 -20.078125 22.515625 -19.804688 22.734375 -19.515625 L 22.734375 -23.53125 L 26.46875 -23.53125 Z M 26.46875 0 "/></g></g></g><g fill="#591f27" fill-opacity="1"><g transform="translate(238.309407, 210.661975)"><g><path d="M 16.09375 -18.671875 C 15.238281 -19.453125 14.3125 -19.84375 13.3125 -19.84375 C 12.351562 -19.84375 11.535156 -19.578125 10.859375 -19.046875 C 10.140625 -18.472656 9.550781 -17.796875 9.09375 -17.015625 C 8.195312 -15.441406 7.75 -13.691406 7.75 -11.765625 L 7.75 0 L 4.015625 0 L 4.015625 -23.53125 L 7.75 -23.53125 L 7.75 -18.671875 L 7.921875 -19.625 C 9.160156 -22.550781 11.101562 -24.015625 13.75 -24.015625 C 14.5625 -24.015625 15.34375 -23.851562 16.09375 -23.53125 Z M 16.09375 -18.671875 "/></g></g></g><g fill="#591f27" fill-opacity="1"><g transform="translate(254.944072, 210.661975)"><g><path d="M 1.0625 -20.0625 L 1.0625 -23.53125 L 6.953125 -23.53125 L 6.953125 -32.671875 L 10.703125 -32.671875 L 10.703125 -23.53125 L 16.53125 -23.53125 L 16.53125 -20.0625 L 10.703125 -20.0625 L 10.703125 0 L 6.953125 0 L 6.953125 -20.0625 Z M 1.0625 -20.0625 "/></g></g></g><g fill="#00bf63" fill-opacity="1"><g transform="translate(272.547533, 210.661975)"><g><path d="M 7.109375 0.53125 C 6.296875 0.53125 5.582031 0.226562 4.96875 -0.375 C 4.332031 -0.945312 4.015625 -1.640625 4.015625 -2.453125 C 4.015625 -3.273438 4.316406 -3.988281 4.921875 -4.59375 C 5.523438 -5.207031 6.253906 -5.515625 7.109375 -5.515625 C 7.960938 -5.515625 8.710938 -5.226562 9.359375 -4.65625 C 9.960938 -4.050781 10.265625 -3.335938 10.265625 -2.515625 C 10.265625 -1.660156 9.945312 -0.945312 9.3125 -0.375 C 8.664062 0.226562 7.929688 0.53125 7.109375 0.53125 Z M 7.109375 0.53125 "/></g></g></g><g fill="#00bf63" fill-opacity="1"><g transform="translate(60.328854, 240.940386)"><g><path d="M 10.015625 -5.828125 C 10.015625 -6.429688 9.851562 -6.992188 9.53125 -7.515625 C 9.207031 -8.035156 8.785156 -8.453125 8.265625 -8.765625 C 7.753906 -9.085938 7.195312 -9.25 6.59375 -9.25 C 6 -9.25 5.4375 -9.085938 4.90625 -8.765625 C 4.382812 -8.453125 3.960938 -8.035156 3.640625 -7.515625 C 3.328125 -6.992188 3.171875 -6.429688 3.171875 -5.828125 C 3.171875 -5.234375 3.328125 -4.675781 3.640625 -4.15625 C 3.960938 -3.632812 4.382812 -3.207031 4.90625 -2.875 C 5.4375 -2.550781 6 -2.390625 6.59375 -2.390625 C 7.195312 -2.390625 7.753906 -2.550781 8.265625 -2.875 C 8.785156 -3.207031 9.207031 -3.632812 9.53125 -4.15625 C 9.851562 -4.675781 10.015625 -5.234375 10.015625 -5.828125 Z M 12.578125 -5.8125 C 12.578125 -5.019531 12.414062 -4.257812 12.09375 -3.53125 C 11.78125 -2.8125 11.34375 -2.171875 10.78125 -1.609375 C 10.226562 -1.054688 9.59375 -0.617188 8.875 -0.296875 C 8.15625 0.015625 7.394531 0.171875 6.59375 0.171875 C 5.789062 0.171875 5.023438 0.015625 4.296875 -0.296875 C 3.578125 -0.617188 2.941406 -1.054688 2.390625 -1.609375 C 1.835938 -2.171875 1.398438 -2.8125 1.078125 -3.53125 C 0.753906 -4.257812 0.59375 -5.019531 0.59375 -5.8125 C 0.59375 -6.625 0.753906 -7.390625 1.078125 -8.109375 C 1.398438 -8.828125 1.835938 -9.460938 2.390625 -10.015625 C 2.941406 -10.566406 3.578125 -11.003906 4.296875 -11.328125 C 5.023438 -11.648438 5.789062 -11.8125 6.59375 -11.8125 C 7.394531 -11.8125 8.15625 -11.648438 8.875 -11.328125 C 9.59375 -11.003906 10.226562 -10.566406 10.78125 -10.015625 C 11.34375 -9.460938 11.78125 -8.828125 12.09375 -8.109375 C 12.414062 -7.390625 12.578125 -6.625 12.578125 -5.8125 Z M 12.578125 -5.8125 "/></g></g></g><g fill="#00bf63" fill-opacity="1"><g transform="translate(75.377338, 240.940386)"><g><path d="M 10.15625 0 L 7.59375 0 L 3.59375 -7.25 L 3.59375 0 L 1.03125 0 L 1.03125 -11.640625 L 3.59375 -11.640625 L 7.59375 -4.375 L 7.59375 -11.640625 L 10.15625 -11.640625 Z M 10.15625 0 "/></g></g></g><g fill="#00bf63" fill-opacity="1"><g transform="translate(88.442462, 240.940386)"><g><path d="M 1.03125 0 L 1.03125 -11.640625 L 3.59375 -11.640625 L 3.59375 -2.328125 L 7.765625 -2.328125 L 7.765625 0 Z M 1.03125 0 "/></g></g></g><g fill="#00bf63" fill-opacity="1"><g transform="translate(98.686424, 240.940386)"><g><path d="M 3.59375 0 L 1.03125 0 L 1.03125 -11.640625 L 3.59375 -11.640625 Z M 3.59375 0 "/></g></g></g><g fill="#00bf63" fill-opacity="1"><g transform="translate(105.185934, 240.940386)"><g><path d="M 10.15625 0 L 7.59375 0 L 3.59375 -7.25 L 3.59375 0 L 1.03125 0 L 1.03125 -11.640625 L 3.59375 -11.640625 L 7.59375 -4.375 L 7.59375 -11.640625 L 10.15625 -11.640625 Z M 10.15625 0 "/></g></g></g><g fill="#00bf63" fill-opacity="1"><g transform="translate(118.251057, 240.940386)"><g><path d="M 7.765625 -2.328125 L 7.765625 0 L 1.03125 0 L 1.03125 -11.640625 L 7.765625 -11.640625 L 7.765625 -9.3125 L 3.59375 -9.3125 L 3.59375 -7 L 7.59375 -7 L 7.59375 -4.671875 L 3.59375 -4.671875 L 3.59375 -2.328125 Z M 7.765625 -2.328125 "/></g></g></g><g fill="#00bf63" fill-opacity="1"><g transform="translate(128.922466, 240.940386)"><g/></g></g><g fill="#00bf63" fill-opacity="1"><g transform="translate(135.080029, 240.940386)"><g><path d="M 6.84375 -9.40625 C 6.226562 -9.40625 5.660156 -9.238281 5.140625 -8.90625 C 4.628906 -8.582031 4.21875 -8.144531 3.90625 -7.59375 C 3.601562 -7.050781 3.453125 -6.445312 3.453125 -5.78125 C 3.453125 -5.132812 3.601562 -4.53125 3.90625 -3.96875 C 4.21875 -3.414062 4.628906 -2.972656 5.140625 -2.640625 C 5.660156 -2.316406 6.226562 -2.15625 6.84375 -2.15625 C 7.21875 -2.15625 7.613281 -2.207031 8.03125 -2.3125 C 8.445312 -2.425781 8.832031 -2.632812 9.1875 -2.9375 C 9.550781 -3.25 9.835938 -3.695312 10.046875 -4.28125 L 7.078125 -4.28125 L 7.078125 -6.203125 L 12.8125 -6.203125 L 12.8125 -5.8125 C 12.8125 -4.988281 12.65625 -4.210938 12.34375 -3.484375 C 12.039062 -2.765625 11.613281 -2.128906 11.0625 -1.578125 C 10.519531 -1.023438 9.890625 -0.59375 9.171875 -0.28125 C 8.453125 0.0195312 7.675781 0.171875 6.84375 0.171875 C 6.019531 0.171875 5.242188 0.015625 4.515625 -0.296875 C 3.796875 -0.609375 3.160156 -1.035156 2.609375 -1.578125 C 2.066406 -2.128906 1.640625 -2.765625 1.328125 -3.484375 C 1.015625 -4.210938 0.859375 -4.988281 0.859375 -5.8125 C 0.859375 -6.632812 1.015625 -7.40625 1.328125 -8.125 C 1.640625 -8.851562 2.066406 -9.488281 2.609375 -10.03125 C 3.160156 -10.582031 3.796875 -11.015625 4.515625 -11.328125 C 5.242188 -11.648438 6.019531 -11.8125 6.84375 -11.8125 C 7.695312 -11.8125 8.503906 -11.632812 9.265625 -11.28125 C 10.035156 -10.9375 10.703125 -10.457031 11.265625 -9.84375 C 11.835938 -9.238281 12.257812 -8.53125 12.53125 -7.71875 L 9.703125 -7.71875 C 9.410156 -8.332031 9.003906 -8.765625 8.484375 -9.015625 C 7.960938 -9.273438 7.414062 -9.40625 6.84375 -9.40625 Z M 6.84375 -9.40625 "/></g></g></g><g fill="#00bf63" fill-opacity="1"><g transform="translate(150.367887, 240.940386)"><g><path d="M 3.59375 -4.15625 L 3.59375 0 L 1.03125 0 L 1.03125 -11.640625 L 5.390625 -11.640625 C 6.015625 -11.640625 6.597656 -11.476562 7.140625 -11.15625 C 7.679688 -10.84375 8.117188 -10.40625 8.453125 -9.84375 C 8.785156 -9.289062 8.953125 -8.644531 8.953125 -7.90625 C 8.953125 -7.25 8.832031 -6.671875 8.59375 -6.171875 C 8.351562 -5.671875 8.03125 -5.257812 7.625 -4.9375 C 7.226562 -4.625 6.785156 -4.40625 6.296875 -4.28125 L 9.625 0 L 6.375 0 L 3.609375 -4.15625 Z M 4.96875 -9.609375 L 3.59375 -9.609375 L 3.59375 -6.171875 L 4.96875 -6.171875 C 5.34375 -6.171875 5.691406 -6.316406 6.015625 -6.609375 C 6.335938 -6.910156 6.5 -7.34375 6.5 -7.90625 C 6.5 -8.4375 6.335938 -8.851562 6.015625 -9.15625 C 5.691406 -9.457031 5.34375 -9.609375 4.96875 -9.609375 Z M 4.96875 -9.609375 "/></g></g></g><g fill="#00bf63" fill-opacity="1"><g transform="translate(161.671927, 240.940386)"><g><path d="M 10.015625 -5.828125 C 10.015625 -6.429688 9.851562 -6.992188 9.53125 -7.515625 C 9.207031 -8.035156 8.785156 -8.453125 8.265625 -8.765625 C 7.753906 -9.085938 7.195312 -9.25 6.59375 -9.25 C 6 -9.25 5.4375 -9.085938 4.90625 -8.765625 C 4.382812 -8.453125 3.960938 -8.035156 3.640625 -7.515625 C 3.328125 -6.992188 3.171875 -6.429688 3.171875 -5.828125 C 3.171875 -5.234375 3.328125 -4.675781 3.640625 -4.15625 C 3.960938 -3.632812 4.382812 -3.207031 4.90625 -2.875 C 5.4375 -2.550781 6 -2.390625 6.59375 -2.390625 C 7.195312 -2.390625 7.753906 -2.550781 8.265625 -2.875 C 8.785156 -3.207031 9.207031 -3.632812 9.53125 -4.15625 C 9.851562 -4.675781 10.015625 -5.234375 10.015625 -5.828125 Z M 12.578125 -5.8125 C 12.578125 -5.019531 12.414062 -4.257812 12.09375 -3.53125 C 11.78125 -2.8125 11.34375 -2.171875 10.78125 -1.609375 C 10.226562 -1.054688 9.59375 -0.617188 8.875 -0.296875 C 8.15625 0.015625 7.394531 0.171875 6.59375 0.171875 C 5.789062 0.171875 5.023438 0.015625 4.296875 -0.296875 C 3.578125 -0.617188 2.941406 -1.054688 2.390625 -1.609375 C 1.835938 -2.171875 1.398438 -2.8125 1.078125 -3.53125 C 0.753906 -4.257812 0.59375 -5.019531 0.59375 -5.8125 C 0.59375 -6.625 0.753906 -7.390625 1.078125 -8.109375 C 1.398438 -8.828125 1.835938 -9.460938 2.390625 -10.015625 C 2.941406 -10.566406 3.578125 -11.003906 4.296875 -11.328125 C 5.023438 -11.648438 5.789062 -11.8125 6.59375 -11.8125 C 7.394531 -11.8125 8.15625 -11.648438 8.875 -11.328125 C 9.59375 -11.003906 10.226562 -10.566406 10.78125 -10.015625 C 11.34375 -9.460938 11.78125 -8.828125 12.09375 -8.109375 C 12.414062 -7.390625 12.578125 -6.625 12.578125 -5.8125 Z M 12.578125 -5.8125 "/></g></g></g><g fill="#00bf63" fill-opacity="1"><g transform="translate(176.720415, 240.940386)"><g><path d="M 9.421875 -3.953125 L 12.28125 -3.953125 C 12.019531 -3.148438 11.609375 -2.4375 11.046875 -1.8125 C 10.492188 -1.195312 9.832031 -0.710938 9.0625 -0.359375 C 8.300781 -0.00390625 7.476562 0.171875 6.59375 0.171875 C 5.769531 0.171875 4.992188 0.0195312 4.265625 -0.28125 C 3.546875 -0.59375 2.90625 -1.023438 2.34375 -1.578125 C 1.789062 -2.128906 1.359375 -2.765625 1.046875 -3.484375 C 0.742188 -4.210938 0.59375 -4.988281 0.59375 -5.8125 C 0.59375 -6.632812 0.742188 -7.40625 1.046875 -8.125 C 1.359375 -8.851562 1.789062 -9.492188 2.34375 -10.046875 C 2.90625 -10.597656 3.546875 -11.03125 4.265625 -11.34375 C 4.992188 -11.65625 5.769531 -11.8125 6.59375 -11.8125 C 7.476562 -11.8125 8.300781 -11.632812 9.0625 -11.28125 C 9.820312 -10.925781 10.476562 -10.441406 11.03125 -9.828125 C 11.59375 -9.210938 12.003906 -8.507812 12.265625 -7.71875 L 9.40625 -7.71875 C 9.164062 -8.238281 8.785156 -8.648438 8.265625 -8.953125 C 7.742188 -9.253906 7.1875 -9.40625 6.59375 -9.40625 C 5.957031 -9.40625 5.382812 -9.242188 4.875 -8.921875 C 4.363281 -8.597656 3.957031 -8.164062 3.65625 -7.625 C 3.351562 -7.082031 3.203125 -6.476562 3.203125 -5.8125 C 3.203125 -5.15625 3.351562 -4.554688 3.65625 -4.015625 C 3.957031 -3.472656 4.363281 -3.035156 4.875 -2.703125 C 5.382812 -2.378906 5.957031 -2.21875 6.59375 -2.21875 C 7.195312 -2.21875 7.757812 -2.378906 8.28125 -2.703125 C 8.800781 -3.023438 9.179688 -3.441406 9.421875 -3.953125 Z M 9.421875 -3.953125 "/></g></g></g><g fill="#00bf63" fill-opacity="1"><g transform="translate(191.307262, 240.940386)"><g><path d="M 7.765625 -2.328125 L 7.765625 0 L 1.03125 0 L 1.03125 -11.640625 L 7.765625 -11.640625 L 7.765625 -9.3125 L 3.59375 -9.3125 L 3.59375 -7 L 7.59375 -7 L 7.59375 -4.671875 L 3.59375 -4.671875 L 3.59375 -2.328125 Z M 7.765625 -2.328125 "/></g></g></g><g fill="#00bf63" fill-opacity="1"><g transform="translate(201.978676, 240.940386)"><g><path d="M 3.59375 -4.15625 L 3.59375 0 L 1.03125 0 L 1.03125 -11.640625 L 5.390625 -11.640625 C 6.015625 -11.640625 6.597656 -11.476562 7.140625 -11.15625 C 7.679688 -10.84375 8.117188 -10.40625 8.453125 -9.84375 C 8.785156 -9.289062 8.953125 -8.644531 8.953125 -7.90625 C 8.953125 -7.25 8.832031 -6.671875 8.59375 -6.171875 C 8.351562 -5.671875 8.03125 -5.257812 7.625 -4.9375 C 7.226562 -4.625 6.785156 -4.40625 6.296875 -4.28125 L 9.625 0 L 6.375 0 L 3.609375 -4.15625 Z M 4.96875 -9.609375 L 3.59375 -9.609375 L 3.59375 -6.171875 L 4.96875 -6.171875 C 5.34375 -6.171875 5.691406 -6.316406 6.015625 -6.609375 C 6.335938 -6.910156 6.5 -7.34375 6.5 -7.90625 C 6.5 -8.4375 6.335938 -8.851562 6.015625 -9.15625 C 5.691406 -9.457031 5.34375 -9.609375 4.96875 -9.609375 Z M 4.96875 -9.609375 "/></g></g></g><g fill="#00bf63" fill-opacity="1"><g transform="translate(213.282716, 240.940386)"><g><path d="M 4.4375 0 L 4.4375 -5.5625 L 0.140625 -11.640625 L 3.203125 -11.640625 L 5.71875 -7.609375 L 8.234375 -11.640625 L 11.296875 -11.640625 L 7 -5.5625 L 7 0 Z M 4.4375 0 "/></g></g></g><g fill="#00bf63" fill-opacity="1"><g transform="translate(226.587213, 240.940386)"><g/></g></g><g fill="#00bf63" fill-opacity="1"><g transform="translate(232.744782, 240.940386)"><g><path d="M 5.546875 -1.8125 C 5.816406 -1.8125 6.109375 -1.851562 6.421875 -1.9375 C 6.742188 -2.019531 7.019531 -2.160156 7.25 -2.359375 C 7.488281 -2.566406 7.609375 -2.84375 7.609375 -3.1875 C 7.609375 -3.5 7.484375 -3.753906 7.234375 -3.953125 C 6.992188 -4.148438 6.675781 -4.3125 6.28125 -4.4375 C 5.882812 -4.5625 5.445312 -4.675781 4.96875 -4.78125 C 4.5 -4.882812 4.023438 -5.015625 3.546875 -5.171875 C 3.066406 -5.328125 2.625 -5.53125 2.21875 -5.78125 C 1.820312 -6.03125 1.5 -6.351562 1.25 -6.75 C 1.007812 -7.15625 0.890625 -7.664062 0.890625 -8.28125 C 0.890625 -8.882812 1.015625 -9.40625 1.265625 -9.84375 C 1.515625 -10.28125 1.847656 -10.644531 2.265625 -10.9375 C 2.679688 -11.226562 3.148438 -11.445312 3.671875 -11.59375 C 4.191406 -11.738281 4.710938 -11.8125 5.234375 -11.8125 C 6.035156 -11.8125 6.78125 -11.679688 7.46875 -11.421875 C 8.164062 -11.171875 8.734375 -10.773438 9.171875 -10.234375 C 9.617188 -9.691406 9.851562 -8.976562 9.875 -8.09375 L 7.390625 -8.09375 C 7.316406 -8.695312 7.101562 -9.113281 6.75 -9.34375 C 6.40625 -9.582031 5.910156 -9.703125 5.265625 -9.703125 C 5.023438 -9.703125 4.769531 -9.660156 4.5 -9.578125 C 4.238281 -9.503906 4.015625 -9.378906 3.828125 -9.203125 C 3.640625 -9.023438 3.546875 -8.785156 3.546875 -8.484375 C 3.546875 -8.191406 3.664062 -7.957031 3.90625 -7.78125 C 4.15625 -7.613281 4.476562 -7.472656 4.875 -7.359375 C 5.269531 -7.242188 5.707031 -7.132812 6.1875 -7.03125 C 6.664062 -6.925781 7.140625 -6.800781 7.609375 -6.65625 C 8.085938 -6.507812 8.523438 -6.304688 8.921875 -6.046875 C 9.328125 -5.785156 9.648438 -5.453125 9.890625 -5.046875 C 10.140625 -4.640625 10.265625 -4.113281 10.265625 -3.46875 C 10.265625 -2.789062 10.125 -2.210938 9.84375 -1.734375 C 9.570312 -1.253906 9.207031 -0.867188 8.75 -0.578125 C 8.289062 -0.285156 7.769531 -0.0703125 7.1875 0.0625 C 6.613281 0.207031 6.03125 0.28125 5.4375 0.28125 C 4.582031 0.28125 3.78125 0.132812 3.03125 -0.15625 C 2.289062 -0.445312 1.6875 -0.894531 1.21875 -1.5 C 0.757812 -2.101562 0.523438 -2.878906 0.515625 -3.828125 L 3.109375 -3.828125 C 3.148438 -3.128906 3.410156 -2.617188 3.890625 -2.296875 C 4.367188 -1.972656 4.921875 -1.8125 5.546875 -1.8125 Z M 5.546875 -1.8125 "/></g></g></g><g fill="#00bf63" fill-opacity="1"><g transform="translate(245.399546, 240.940386)"><g><path d="M 7.421875 -11.640625 L 10.15625 -11.640625 L 10.15625 0 L 7.421875 0 L 7.421875 -4.671875 L 3.59375 -4.671875 L 3.59375 0 L 1.03125 0 L 1.03125 -11.640625 L 3.59375 -11.640625 L 3.59375 -7 L 7.421875 -7 Z M 7.421875 -11.640625 "/></g></g></g><g fill="#00bf63" fill-opacity="1"><g transform="translate(258.464674, 240.940386)"><g><path d="M 10.015625 -5.828125 C 10.015625 -6.429688 9.851562 -6.992188 9.53125 -7.515625 C 9.207031 -8.035156 8.785156 -8.453125 8.265625 -8.765625 C 7.753906 -9.085938 7.195312 -9.25 6.59375 -9.25 C 6 -9.25 5.4375 -9.085938 4.90625 -8.765625 C 4.382812 -8.453125 3.960938 -8.035156 3.640625 -7.515625 C 3.328125 -6.992188 3.171875 -6.429688 3.171875 -5.828125 C 3.171875 -5.234375 3.328125 -4.675781 3.640625 -4.15625 C 3.960938 -3.632812 4.382812 -3.207031 4.90625 -2.875 C 5.4375 -2.550781 6 -2.390625 6.59375 -2.390625 C 7.195312 -2.390625 7.753906 -2.550781 8.265625 -2.875 C 8.785156 -3.207031 9.207031 -3.632812 9.53125 -4.15625 C 9.851562 -4.675781 10.015625 -5.234375 10.015625 -5.828125 Z M 12.578125 -5.8125 C 12.578125 -5.019531 12.414062 -4.257812 12.09375 -3.53125 C 11.78125 -2.8125 11.34375 -2.171875 10.78125 -1.609375 C 10.226562 -1.054688 9.59375 -0.617188 8.875 -0.296875 C 8.15625 0.015625 7.394531 0.171875 6.59375 0.171875 C 5.789062 0.171875 5.023438 0.015625 4.296875 -0.296875 C 3.578125 -0.617188 2.941406 -1.054688 2.390625 -1.609375 C 1.835938 -2.171875 1.398438 -2.8125 1.078125 -3.53125 C 0.753906 -4.257812 0.59375 -5.019531 0.59375 -5.8125 C 0.59375 -6.625 0.753906 -7.390625 1.078125 -8.109375 C 1.398438 -8.828125 1.835938 -9.460938 2.390625 -10.015625 C 2.941406 -10.566406 3.578125 -11.003906 4.296875 -11.328125 C 5.023438 -11.648438 5.789062 -11.8125 6.59375 -11.8125 C 7.394531 -11.8125 8.15625 -11.648438 8.875 -11.328125 C 9.59375 -11.003906 10.226562 -10.566406 10.78125 -10.015625 C 11.34375 -9.460938 11.78125 -8.828125 12.09375 -8.109375 C 12.414062 -7.390625 12.578125 -6.625 12.578125 -5.8125 Z M 12.578125 -5.8125 "/></g></g></g><g fill="#00bf63" fill-opacity="1"><g transform="translate(273.513162, 240.940386)"><g><path d="M 3.59375 -4.15625 L 3.59375 0 L 1.03125 0 L 1.03125 -11.640625 L 5.390625 -11.640625 C 6.015625 -11.640625 6.597656 -11.476562 7.140625 -11.15625 C 7.679688 -10.84375 8.117188 -10.40625 8.453125 -9.84375 C 8.785156 -9.289062 8.953125 -8.644531 8.953125 -7.90625 C 8.953125 -7.113281 8.785156 -6.4375 8.453125 -5.875 C 8.117188 -5.320312 7.679688 -4.894531 7.140625 -4.59375 C 6.597656 -4.300781 6.015625 -4.15625 5.390625 -4.15625 Z M 4.96875 -9.609375 L 3.59375 -9.609375 L 3.59375 -6.171875 L 4.96875 -6.171875 C 5.34375 -6.171875 5.691406 -6.316406 6.015625 -6.609375 C 6.335938 -6.910156 6.5 -7.34375 6.5 -7.90625 C 6.5 -8.4375 6.335938 -8.851562 6.015625 -9.15625 C 5.691406 -9.457031 5.34375 -9.609375 4.96875 -9.609375 Z M 4.96875 -9.609375 "/></g></g></g></svg>